<svg width="20" height="21" fill="none" xmlns="http://www.w3.org/2000/svg"><path d="m.75 1.25 2.08.36.963 11.473a1.8 1.8 0 0 0 1.8 1.653h10.909a1.8 1.8 0 0 0 1.785-1.546l.949-6.558a1.341 1.341 0 0 0-1.135-1.519c-.064-.009-14.937-.014-14.937-.014M12.125 8.795h2.773" stroke="#fff" stroke-width="1.5" stroke-linecap="round" stroke-linejoin="round"/><path fill-rule="evenodd" clip-rule="evenodd" d="M5.154 18.203a.544.544 0 1 1 0 1.087.544.544 0 0 1 0-1.087ZM16.435 18.203a.545.545 0 1 1 0 1.09.545.545 0 0 1 0-1.09Z" fill="#fff" stroke="#fff" stroke-width="1.5" stroke-linecap="round" stroke-linejoin="round"/></svg>